<svg width="161" height="58" viewBox="0 0 161 58" fill="none" xmlns="http://www.w3.org/2000/svg">
<rect width="161" height="58" rx="29" fill="white" fill-opacity="0.1"/>
<path d="M26.7601 31.56H34.5041L30.6961 20.904H30.6321L26.7601 31.56ZM29.0321 18.152H32.3921L41.3201 41H37.9601L35.4641 34.12H25.8001L23.2401 41H20.1361L29.0321 18.152ZM43.2221 24.456H45.9421V26.696H46.0061C46.4541 25.7787 47.1581 25.1173 48.1181 24.712C49.0781 24.2853 50.1341 24.072 51.2861 24.072C52.5661 24.072 53.6755 24.3067 54.6141 24.776C55.5741 25.2453 56.3635 25.8853 56.9821 26.696C57.6221 27.4853 58.1021 28.4027 58.4221 29.448C58.7421 30.4933 58.9021 31.6027 58.9021 32.776C58.9021 33.9493 58.7421 35.0587 58.4221 36.104C58.1235 37.1493 57.6541 38.0667 57.0141 38.856C56.3955 39.624 55.6061 40.232 54.6461 40.68C53.7075 41.128 52.6088 41.352 51.3501 41.352C50.9448 41.352 50.4861 41.3093 49.9741 41.224C49.4835 41.1387 48.9928 41 48.5021 40.808C48.0115 40.616 47.5421 40.36 47.0941 40.04C46.6675 39.6987 46.3048 39.2827 46.0061 38.792H45.9421V47.304H43.2221V24.456ZM56.0221 32.584C56.0221 31.816 55.9155 31.0693 55.7021 30.344C55.5101 29.5973 55.2008 28.936 54.7741 28.36C54.3688 27.784 53.8355 27.3253 53.1741 26.984C52.5341 26.6427 51.7768 26.472 50.9021 26.472C49.9848 26.472 49.2061 26.6533 48.5661 27.016C47.9261 27.3787 47.4035 27.8587 46.9981 28.456C46.5928 29.032 46.2941 29.6933 46.1021 30.44C45.9315 31.1867 45.8461 31.944 45.8461 32.712C45.8461 33.5227 45.9421 34.312 46.1341 35.08C46.3261 35.8267 46.6248 36.488 47.0301 37.064C47.4568 37.64 48.0008 38.1093 48.6621 38.472C49.3235 38.8133 50.1235 38.984 51.0621 38.984C52.0008 38.984 52.7795 38.8027 53.3981 38.44C54.0381 38.0773 54.5501 37.5973 54.9341 37C55.3181 36.4027 55.5955 35.72 55.7661 34.952C55.9368 34.184 56.0221 33.3947 56.0221 32.584ZM62.1909 24.456H64.9109V26.696H64.9749C65.4229 25.7787 66.1269 25.1173 67.0869 24.712C68.0469 24.2853 69.1029 24.072 70.2549 24.072C71.5349 24.072 72.6442 24.3067 73.5829 24.776C74.5429 25.2453 75.3322 25.8853 75.9509 26.696C76.5909 27.4853 77.0709 28.4027 77.3909 29.448C77.7109 30.4933 77.8709 31.6027 77.8709 32.776C77.8709 33.9493 77.7109 35.0587 77.3909 36.104C77.0922 37.1493 76.6229 38.0667 75.9829 38.856C75.3642 39.624 74.5749 40.232 73.6149 40.68C72.6762 41.128 71.5775 41.352 70.3189 41.352C69.9135 41.352 69.4549 41.3093 68.9429 41.224C68.4522 41.1387 67.9615 41 67.4709 40.808C66.9802 40.616 66.5109 40.36 66.0629 40.04C65.6362 39.6987 65.2735 39.2827 64.9749 38.792H64.9109V47.304H62.1909V24.456ZM74.9909 32.584C74.9909 31.816 74.8842 31.0693 74.6709 30.344C74.4789 29.5973 74.1695 28.936 73.7429 28.36C73.3375 27.784 72.8042 27.3253 72.1429 26.984C71.5029 26.6427 70.7455 26.472 69.8709 26.472C68.9535 26.472 68.1749 26.6533 67.5349 27.016C66.8949 27.3787 66.3722 27.8587 65.9669 28.456C65.5615 29.032 65.2629 29.6933 65.0709 30.44C64.9002 31.1867 64.8149 31.944 64.8149 32.712C64.8149 33.5227 64.9109 34.312 65.1029 35.08C65.2949 35.8267 65.5935 36.488 65.9989 37.064C66.4255 37.64 66.9695 38.1093 67.6309 38.472C68.2922 38.8133 69.0922 38.984 70.0309 38.984C70.9695 38.984 71.7482 38.8027 72.3669 38.44C73.0069 38.0773 73.5189 37.5973 73.9029 37C74.2869 36.4027 74.5642 35.72 74.7349 34.952C74.9055 34.184 74.9909 33.3947 74.9909 32.584ZM80.9676 24.456H83.5276V27.944H83.5916C84.253 26.6 85.0636 25.608 86.0236 24.968C86.9836 24.328 88.1996 24.0293 89.6716 24.072V26.952C88.5836 26.952 87.6556 27.1013 86.8876 27.4C86.1196 27.6987 85.501 28.136 85.0316 28.712C84.5623 29.288 84.221 29.992 84.0076 30.824C83.7943 31.6347 83.6876 32.5733 83.6876 33.64V41H80.9676V24.456ZM93.1414 32.744C93.1414 33.7467 93.2694 34.6427 93.5254 35.432C93.8027 36.2 94.176 36.8507 94.6454 37.384C95.1147 37.896 95.6587 38.2907 96.2774 38.568C96.9174 38.8453 97.5894 38.984 98.2934 38.984C98.9974 38.984 99.6587 38.8453 100.277 38.568C100.917 38.2907 101.472 37.896 101.941 37.384C102.411 36.8507 102.773 36.2 103.029 35.432C103.307 34.6427 103.445 33.7467 103.445 32.744C103.445 31.7413 103.307 30.856 103.029 30.088C102.773 29.2987 102.411 28.6373 101.941 28.104C101.472 27.5707 100.917 27.1653 100.277 26.888C99.6587 26.6107 98.9974 26.472 98.2934 26.472C97.5894 26.472 96.9174 26.6107 96.2774 26.888C95.6587 27.1653 95.1147 27.5707 94.6454 28.104C94.176 28.6373 93.8027 29.2987 93.5254 30.088C93.2694 30.856 93.1414 31.7413 93.1414 32.744ZM90.2614 32.744C90.2614 31.528 90.432 30.3973 90.7734 29.352C91.1147 28.2853 91.6267 27.368 92.3094 26.6C92.992 25.8107 93.8347 25.192 94.8374 24.744C95.84 24.296 96.992 24.072 98.2934 24.072C99.616 24.072 100.768 24.296 101.749 24.744C102.752 25.192 103.595 25.8107 104.277 26.6C104.96 27.368 105.472 28.2853 105.813 29.352C106.155 30.3973 106.325 31.528 106.325 32.744C106.325 33.96 106.155 35.0907 105.813 36.136C105.472 37.1813 104.96 38.0987 104.277 38.888C103.595 39.656 102.752 40.264 101.749 40.712C100.768 41.1387 99.616 41.352 98.2934 41.352C96.992 41.352 95.84 41.1387 94.8374 40.712C93.8347 40.264 92.992 39.656 92.3094 38.888C91.6267 38.0987 91.1147 37.1813 90.7734 36.136C90.432 35.0907 90.2614 33.96 90.2614 32.744ZM116.988 41H114.076L107.932 24.456H110.972L115.612 38.248H115.676L120.188 24.456H123.036L116.988 41ZM137.02 31.144C136.978 30.504 136.828 29.896 136.572 29.32C136.338 28.744 136.007 28.2533 135.58 27.848C135.175 27.4213 134.684 27.0907 134.108 26.856C133.554 26.6 132.935 26.472 132.252 26.472C131.548 26.472 130.908 26.6 130.332 26.856C129.778 27.0907 129.298 27.4213 128.892 27.848C128.487 28.2747 128.167 28.776 127.932 29.352C127.698 29.9067 127.559 30.504 127.516 31.144H137.02ZM139.644 35.752C139.282 37.608 138.482 39.0053 137.244 39.944C136.007 40.8827 134.45 41.352 132.572 41.352C131.25 41.352 130.098 41.1387 129.116 40.712C128.156 40.2853 127.346 39.688 126.684 38.92C126.023 38.152 125.522 37.2347 125.18 36.168C124.86 35.1013 124.679 33.9387 124.636 32.68C124.636 31.4213 124.828 30.2693 125.212 29.224C125.596 28.1787 126.13 27.272 126.812 26.504C127.516 25.736 128.338 25.1387 129.276 24.712C130.236 24.2853 131.282 24.072 132.412 24.072C133.884 24.072 135.1 24.3813 136.06 25C137.042 25.5973 137.82 26.3653 138.396 27.304C138.994 28.2427 139.399 29.2667 139.612 30.376C139.847 31.4853 139.943 32.5413 139.9 33.544H127.516C127.495 34.2693 127.58 34.9627 127.772 35.624C127.964 36.264 128.274 36.84 128.7 37.352C129.127 37.8427 129.671 38.2373 130.332 38.536C130.994 38.8347 131.772 38.984 132.668 38.984C133.82 38.984 134.759 38.7173 135.484 38.184C136.231 37.6507 136.722 36.84 136.956 35.752H139.644Z" fill="white"/>
</svg>
