<svg width="68" height="47" viewBox="0 0 68 47" fill="none" xmlns="http://www.w3.org/2000/svg">
<g clip-path="url(#clip0_16_31)">
<path d="M12.7043 20.724C13.0302 20.7274 13.3562 20.7342 13.6822 20.7325C14.4784 20.724 15.2747 20.7105 16.0692 20.7003C17.2593 20.6851 18.4495 20.6715 19.6396 20.6579C20.6582 20.6461 21.6752 20.6342 22.6938 20.6291C23.7549 20.6223 24.816 20.6274 25.8771 20.6223C26.4611 20.6189 27.0452 20.6003 27.6275 20.602C28.4 20.602 29.1724 20.624 29.9466 20.624C30.6902 20.624 31.4322 20.6054 32.1758 20.5952C33.3863 20.5783 34.5951 20.5562 35.8056 20.5427C36.8565 20.5308 37.9074 20.5257 38.9583 20.5189C39.9973 20.5121 41.038 20.5071 42.077 20.502C43.0855 20.4969 44.094 20.4935 45.1007 20.4867C45.7272 20.4816 46.3537 20.4698 46.9802 20.4647C47.9988 20.4579 49.0175 20.4562 50.0361 20.4494C50.7152 20.4443 51.3943 20.4308 52.0734 20.4257C53.1243 20.4172 54.1752 20.4104 55.2261 20.4037C56.2668 20.3969 57.3059 20.3884 58.3466 20.385C59.3551 20.3799 60.3618 20.3833 61.3703 20.3765C61.9645 20.3731 62.5587 20.3562 63.1529 20.3528C64.2021 20.3443 65.2513 20.3392 66.3022 20.3358C66.7488 20.3358 67.1936 20.3477 67.6401 20.3375C67.8591 20.3325 67.9626 20.4189 67.9626 20.6291C67.9626 21.4021 67.961 22.1769 67.9626 22.9499C67.9626 23.1736 67.9694 23.3974 67.9728 23.6195C67.9813 24.3196 67.9881 25.018 68 25.7182C68.0034 25.9453 67.9389 26.0725 67.6723 26.0691C67.0883 26.0623 66.5026 26.0894 65.9169 26.0945C64.8558 26.1047 63.7947 26.1081 62.7319 26.1132C61.7557 26.1182 60.7795 26.125 59.805 26.1233C59.0749 26.1233 58.3432 26.0996 57.6132 26.1013C56.8169 26.1013 56.0207 26.1284 55.2227 26.1284C54.5453 26.1284 53.8679 26.0996 53.1922 26.0979C52.8934 26.0979 52.5963 26.1386 52.2975 26.1471C51.4266 26.1725 50.5556 26.1979 49.683 26.2098C48.6219 26.225 47.5608 26.2267 46.4997 26.2335C45.481 26.2386 44.4624 26.242 43.4437 26.2471C42.4149 26.2522 41.3844 26.2572 40.3555 26.2623C39.3471 26.2674 38.3403 26.2691 37.3318 26.2793C36.0466 26.2912 34.7597 26.3149 33.4745 26.3268C32.4236 26.3369 31.3727 26.3403 30.3218 26.3471C29.2828 26.3539 28.2438 26.364 27.2048 26.3691C26.164 26.3759 25.1233 26.3793 24.0809 26.3827C23.0724 26.3878 22.0623 26.3912 21.0538 26.3963C20.0029 26.4013 18.9537 26.4064 17.9028 26.4166C17.2118 26.4234 16.5225 26.4437 15.8315 26.4471C14.9198 26.4522 14.0081 26.4454 13.0964 26.4471C12.9929 26.4471 12.8893 26.4708 12.7841 26.4827C12.7705 26.5132 12.7569 26.5437 12.7433 26.5743C12.9487 26.6827 13.1474 26.8065 13.3596 26.898C14.3596 27.3337 15.3069 27.8609 16.1982 28.4882C16.93 29.0018 17.677 29.4951 18.3798 30.0478C18.9775 30.519 19.536 31.0429 20.0861 31.5735C21.1217 32.5719 22.0928 33.6264 22.8806 34.8368C23.3458 35.5504 23.8432 36.2472 24.2643 36.9863C24.7176 37.7831 25.1335 38.6069 25.5002 39.4461C25.8686 40.2869 26.1606 41.1633 26.4798 42.0245C27.018 43.4722 27.237 44.9911 27.4628 46.5084C27.5239 46.9169 27.5137 46.9339 27.1114 46.9406C25.7617 46.9644 24.4137 46.9864 23.0639 47.0017C22.8212 47.0051 22.5784 46.9779 22.3356 46.9711C22.1217 46.9661 22.0487 46.8406 22.0096 46.6508C21.8908 46.0761 21.7872 45.498 21.6276 44.9352C21.3832 44.0791 21.1319 43.2196 20.8127 42.389C20.5292 41.6515 20.1591 40.9463 19.8077 40.236C19.536 39.6885 19.261 39.1409 18.9367 38.6222C18.5428 37.9916 18.1065 37.3864 17.6702 36.7829C17.3018 36.2726 16.9469 35.7454 16.5191 35.286C15.6991 34.4045 14.8485 33.5467 13.9793 32.7143C13.0642 31.8379 12.0608 31.0615 10.9709 30.4173C9.93524 29.8053 8.87754 29.2239 7.79608 28.6933C6.97267 28.2898 6.1102 27.9559 5.24435 27.6473C4.6026 27.4168 3.93369 27.2557 3.26647 27.0998C2.43627 26.9065 1.59758 26.7506 0.762293 26.5793C0.741922 26.5742 0.71985 26.5759 0.699472 26.5726C0.495745 26.5319 0.149408 26.5403 0.117151 26.442C0.023775 26.1623 0.0543308 25.8402 0.0407505 25.5351C0.0373554 25.4639 0.0713062 25.3893 0.0696125 25.3181C0.0509358 24.4688 0.025469 23.6195 0.0101874 22.7685C2.16776e-06 22.2057 0.00680001 21.6445 -0.00339281 21.0817C-0.0084816 20.8342 0.146014 20.7868 0.34125 20.7529C1.2139 20.5969 2.08824 20.4511 2.95409 20.2714C4.18666 20.0171 5.36999 19.6052 6.52276 19.1051C7.23242 18.7966 7.95057 18.4999 8.63137 18.1337C9.45478 17.6913 10.2731 17.2251 11.0388 16.6911C11.9488 16.0571 12.8367 15.3807 13.6686 14.6501C14.4054 14.0042 15.0862 13.2854 15.7314 12.5463C16.4699 11.7021 17.1914 10.8358 17.8281 9.91362C18.4223 9.05414 18.9163 8.12177 19.4121 7.19788C19.7873 6.49944 20.1082 5.7705 20.4239 5.04156C20.6107 4.60927 20.7482 4.15495 20.8908 3.70572C21.1064 3.02594 21.3204 2.34446 21.5088 1.6562C21.6344 1.20018 21.7006 0.728914 21.8212 0.271204C21.8467 0.177969 21.9978 0.0525189 22.0911 0.0508213C22.7584 0.0423489 23.4256 0.0643865 24.0945 0.0694716C24.3084 0.0694716 24.5206 0.0457404 24.7345 0.0423491C25.4357 0.0270942 26.1369 0.0253967 26.838 -3.1986e-05C27.1301 -0.0102019 27.2353 0.116942 27.1946 0.38309C27.091 1.03575 26.9824 1.6901 26.8635 2.33937C26.7735 2.83607 26.6819 3.33277 26.5579 3.82099C26.4153 4.37872 26.2455 4.93137 26.069 5.48062C25.8924 6.02987 25.7158 6.58251 25.5002 7.11651C25.2422 7.75899 24.9603 8.39301 24.6564 9.01515C24.3729 9.59322 24.0758 10.1679 23.7295 10.7087C23.2269 11.4936 22.6955 12.2615 22.1387 13.0091C21.7125 13.5821 21.244 14.1279 20.7703 14.6619C20.4188 15.0586 20.0352 15.4299 19.6498 15.7943C19.1404 16.2775 18.6345 16.7674 18.0912 17.2115C17.5293 17.6693 16.9368 18.0931 16.3358 18.4982C15.6567 18.9576 14.964 19.3984 14.256 19.8103C13.8265 20.0595 13.3545 20.2324 12.9046 20.446C12.8146 20.4884 12.7382 20.5613 12.655 20.6189C12.672 20.6545 12.6873 20.6884 12.7043 20.724Z" fill="white"/>
</g>
<defs>
<clipPath id="clip0_16_31">
<rect width="68" height="47" fill="white" transform="translate(68 47) rotate(-180)"/>
</clipPath>
</defs>
</svg>
