<svg width="68" height="47" viewBox="0 0 68 47" fill="none" xmlns="http://www.w3.org/2000/svg">
<g clip-path="url(#clip0_16_29)">
<path d="M55.2957 26.276C54.9698 26.2726 54.6438 26.2658 54.3178 26.2675C53.5216 26.276 52.7253 26.2895 51.9308 26.2997C50.7407 26.3149 49.5505 26.3285 48.3604 26.3421C47.3418 26.3539 46.3248 26.3658 45.3062 26.3709C44.2451 26.3777 43.184 26.3726 42.1229 26.3777C41.5389 26.3811 40.9548 26.3997 40.3725 26.398C39.6 26.398 38.8276 26.376 38.0534 26.376C37.3098 26.376 36.5678 26.3946 35.8242 26.4048C34.6137 26.4217 33.4049 26.4438 32.1944 26.4573C31.1435 26.4692 30.0926 26.4743 29.0417 26.4811C28.0027 26.4879 26.962 26.4929 25.923 26.498C24.9145 26.5031 23.906 26.5065 22.8993 26.5133C22.2728 26.5184 21.6463 26.5302 21.0198 26.5353C20.0012 26.5421 18.9825 26.5438 17.9639 26.5506C17.2848 26.5557 16.6057 26.5692 15.9266 26.5743C14.8757 26.5828 13.8248 26.5896 12.7739 26.5964C11.7332 26.6031 10.6941 26.6116 9.65341 26.615C8.64495 26.6201 7.63818 26.6167 6.62972 26.6235C6.03551 26.6269 5.44129 26.6438 4.84708 26.6472C3.79787 26.6557 2.74866 26.6608 1.69775 26.6642C1.25125 26.6642 0.806435 26.6523 0.359926 26.6625C0.140917 26.6676 0.0373538 26.5811 0.0373538 26.3709C0.0373538 25.5979 0.0390515 24.8232 0.0373538 24.0501C0.0373538 23.8264 0.0305627 23.6026 0.0271672 23.3805C0.0186785 22.6804 0.0118875 21.982 3.23931e-06 21.2818C-0.00339226 21.0547 0.0611222 20.9275 0.327669 20.9309C0.911695 20.9377 1.49742 20.9106 2.08314 20.9055C3.14424 20.8953 4.20533 20.8919 5.26812 20.8869C6.24433 20.8818 7.22054 20.875 8.19504 20.8767C8.92508 20.8767 9.65681 20.9004 10.3868 20.8987C11.1831 20.8987 11.9793 20.8716 12.7773 20.8716C13.4547 20.8716 14.1321 20.9004 14.8078 20.9021C15.1066 20.9021 15.4037 20.8614 15.7025 20.8529C16.5734 20.8275 17.4444 20.8021 18.317 20.7902C19.3781 20.775 20.4392 20.7733 21.5003 20.7665C22.519 20.7614 23.5376 20.758 24.5563 20.7529C25.5851 20.7478 26.6156 20.7428 27.6445 20.7377C28.6529 20.7326 29.6597 20.7309 30.6682 20.7207C31.9534 20.7089 33.2403 20.6851 34.5255 20.6733C35.5764 20.6631 36.6273 20.6597 37.6782 20.6529C38.7172 20.6461 39.7562 20.636 40.7952 20.6309C41.836 20.6241 42.8767 20.6207 43.9191 20.6173C44.9276 20.6122 45.9377 20.6088 46.9462 20.6037C47.9971 20.5987 49.0463 20.5936 50.0972 20.5834C50.7882 20.5766 51.4775 20.5563 52.1685 20.5529C53.0802 20.5478 53.9919 20.5546 54.9036 20.5529C55.0071 20.5529 55.1107 20.5292 55.2159 20.5173C55.2295 20.4868 55.2431 20.4563 55.2567 20.4258C55.0513 20.3173 54.8526 20.1935 54.6404 20.102C53.6404 19.6663 52.6931 19.1391 51.8018 18.5118C51.07 17.9982 50.323 17.5049 49.6202 16.9522C49.0225 16.481 48.464 15.9571 47.9139 15.4265C46.8783 14.4281 45.9072 13.3736 45.1194 12.1632C44.6542 11.4496 44.1568 10.7528 43.7357 10.0137C43.2824 9.21695 42.8665 8.39307 42.4998 7.55394C42.1314 6.71311 41.8394 5.83668 41.5202 4.97551C40.982 3.52779 40.763 2.00887 40.5372 0.491648C40.4761 0.0830999 40.4863 0.0661476 40.8886 0.0593668C42.2383 0.0356337 43.5863 0.0135958 44.9361 -0.0016612C45.1788 -0.00505164 45.4216 0.0220719 45.6644 0.0288528C45.8783 0.0339384 45.9513 0.159385 45.9904 0.34925C46.1092 0.923929 46.2128 1.502 46.3724 2.06481C46.6168 2.9209 46.8681 3.78038 47.1873 4.61104C47.4708 5.34846 47.8409 6.05367 48.1923 6.76397C48.464 7.31152 48.739 7.85908 49.0633 8.37782C49.4572 9.00844 49.8935 9.61363 50.3298 10.2171C50.6982 10.7274 51.0531 11.2546 51.4809 11.714C52.3009 12.5955 53.1515 13.4533 54.0207 14.2857C54.9358 15.1621 55.9392 15.9385 57.0291 16.5827C58.0648 17.1947 59.1225 17.7761 60.2039 18.3067C61.0273 18.7102 61.8898 19.0441 62.7556 19.3527C63.3974 19.5832 64.0663 19.7443 64.7335 19.9002C65.5637 20.0935 66.4024 20.2494 67.2377 20.4207C67.2581 20.4258 67.2802 20.4241 67.3005 20.4274C67.5043 20.4681 67.8506 20.4597 67.8829 20.558C67.9762 20.8377 67.9457 21.1598 67.9593 21.4649C67.9626 21.5361 67.9287 21.6107 67.9304 21.6819C67.9491 22.5312 67.9745 23.3805 67.9898 24.2315C68 24.7943 67.9932 25.3555 68.0034 25.9183C68.0085 26.1658 67.854 26.2132 67.6588 26.2471C66.7861 26.4031 65.9118 26.5489 65.0459 26.7286C63.8133 26.9829 62.63 27.3948 61.4772 27.8949C60.7676 28.2034 60.0494 28.5001 59.3686 28.8663C58.5452 29.3087 57.7269 29.7749 56.9612 30.3089C56.0512 30.9429 55.1633 31.6193 54.3314 32.3499C53.5946 32.9958 52.9138 33.7146 52.2686 34.4537C51.5301 35.2979 50.8086 36.1642 50.1719 37.0864C49.5777 37.9459 49.0837 38.8782 48.5879 39.8021C48.2127 40.5006 47.8918 41.2295 47.5761 41.9584C47.3893 42.3907 47.2518 42.845 47.1092 43.2943C46.8936 43.9741 46.6796 44.6555 46.4912 45.3438C46.3656 45.7998 46.2994 46.2711 46.1788 46.7288C46.1533 46.822 46.0022 46.9475 45.9089 46.9492C45.2417 46.9577 44.5744 46.9356 43.9055 46.9305C43.6916 46.9305 43.4794 46.9543 43.2655 46.9577C42.5643 46.9729 41.8631 46.9746 41.162 47C40.8699 47.0102 40.7647 46.8831 40.8054 46.6169C40.909 45.9643 41.0177 45.3099 41.1365 44.6606C41.2265 44.1639 41.3182 43.6672 41.4421 43.179C41.5847 42.6213 41.7545 42.0686 41.931 41.5194C42.1076 40.9701 42.2842 40.4175 42.4998 39.8835C42.7578 39.241 43.0397 38.607 43.3436 37.9848C43.6271 37.4068 43.9242 36.8321 44.2705 36.2913C44.7731 35.5064 45.3045 34.7385 45.8613 33.9909C46.2875 33.4179 46.7561 32.8721 47.2297 32.3381C47.5812 31.9414 47.9648 31.5701 48.3502 31.2057C48.8596 30.7225 49.3655 30.2326 49.9088 29.7885C50.4707 29.3307 51.0632 28.9069 51.6642 28.5018C52.3433 28.0424 53.036 27.6016 53.744 27.1897C54.1735 26.9405 54.6455 26.7676 55.0954 26.554C55.1854 26.5116 55.2618 26.4387 55.345 26.3811C55.328 26.3455 55.3127 26.3116 55.2957 26.276Z" fill="white"/>
</g>
<defs>
<clipPath id="clip0_16_29">
<rect width="68" height="47" fill="white"/>
</clipPath>
</defs>
</svg>
