<svg width="114" height="58" viewBox="0 0 114 58" fill="none" xmlns="http://www.w3.org/2000/svg">
<rect width="114" height="58" rx="29" fill="white" fill-opacity="0.1"/>
<path d="M25.786 38.44H30.842C31.1833 38.44 31.61 38.4187 32.122 38.376C32.634 38.312 33.178 38.184 33.754 37.992C34.33 37.7787 34.8953 37.48 35.45 37.096C36.026 36.712 36.538 36.1893 36.986 35.528C37.434 34.8667 37.7967 34.0453 38.074 33.064C38.3727 32.0613 38.522 30.856 38.522 29.448C38.522 28.0827 38.3833 26.8667 38.106 25.8C37.85 24.712 37.4127 23.7947 36.794 23.048C36.1967 22.28 35.418 21.704 34.458 21.32C33.498 20.9147 32.314 20.712 30.906 20.712H25.786V38.44ZM22.746 18.152H30.586C34.106 18.152 36.8153 19.048 38.714 20.84C40.6127 22.632 41.562 25.3627 41.562 29.032C41.562 30.952 41.3487 32.6587 40.922 34.152C40.4953 35.624 39.834 36.872 38.938 37.896C38.042 38.8987 36.9007 39.6667 35.514 40.2C34.1273 40.7333 32.4847 41 30.586 41H22.746V18.152ZM56.3173 31.144C56.2746 30.504 56.1253 29.896 55.8693 29.32C55.6346 28.744 55.3039 28.2533 54.8773 27.848C54.4719 27.4213 53.9813 27.0907 53.4053 26.856C52.8506 26.6 52.2319 26.472 51.5493 26.472C50.8453 26.472 50.2053 26.6 49.6293 26.856C49.0746 27.0907 48.5946 27.4213 48.1893 27.848C47.7839 28.2747 47.4639 28.776 47.2293 29.352C46.9946 29.9067 46.8559 30.504 46.8133 31.144H56.3173ZM58.9412 35.752C58.5786 37.608 57.7786 39.0053 56.5413 39.944C55.3039 40.8827 53.7466 41.352 51.8693 41.352C50.5466 41.352 49.3946 41.1387 48.4133 40.712C47.4533 40.2853 46.6426 39.688 45.9813 38.92C45.3199 38.152 44.8186 37.2347 44.4773 36.168C44.1573 35.1013 43.9759 33.9387 43.9333 32.68C43.9333 31.4213 44.1253 30.2693 44.5093 29.224C44.8933 28.1787 45.4266 27.272 46.1093 26.504C46.8133 25.736 47.6346 25.1387 48.5733 24.712C49.5333 24.2853 50.5786 24.072 51.7093 24.072C53.1813 24.072 54.3973 24.3813 55.3573 25C56.3386 25.5973 57.1173 26.3653 57.6933 27.304C58.2906 28.2427 58.6959 29.2667 58.9093 30.376C59.1439 31.4853 59.2399 32.5413 59.1973 33.544H46.8133C46.7919 34.2693 46.8773 34.9627 47.0693 35.624C47.2613 36.264 47.5706 36.84 47.9973 37.352C48.4239 37.8427 48.9679 38.2373 49.6293 38.536C50.2906 38.8347 51.0693 38.984 51.9653 38.984C53.1173 38.984 54.0559 38.7173 54.7813 38.184C55.5279 37.6507 56.0186 36.84 56.2533 35.752H58.9412ZM62.0168 24.456H64.5768V27.08H64.6408C65.7714 25.0747 67.5634 24.072 70.0168 24.072C71.1048 24.072 72.0114 24.2213 72.7368 24.52C73.4621 24.8187 74.0488 25.2347 74.4968 25.768C74.9448 26.3013 75.2541 26.9413 75.4248 27.688C75.6168 28.4133 75.7128 29.224 75.7128 30.12V41H72.9928V29.8C72.9928 28.776 72.6941 27.9653 72.0968 27.368C71.4994 26.7707 70.6781 26.472 69.6328 26.472C68.8008 26.472 68.0754 26.6 67.4568 26.856C66.8594 27.112 66.3581 27.4747 65.9528 27.944C65.5474 28.4133 65.2381 28.968 65.0248 29.608C64.8328 30.2267 64.7368 30.9093 64.7368 31.656V41H62.0168V24.456ZM86.294 43.208C85.974 44.0187 85.654 44.7013 85.334 45.256C85.0353 45.8107 84.694 46.2587 84.31 46.6C83.9473 46.9627 83.5313 47.2187 83.062 47.368C82.614 47.5387 82.0913 47.624 81.494 47.624C81.174 47.624 80.854 47.6027 80.534 47.56C80.214 47.5173 79.9047 47.4427 79.606 47.336V44.84C79.8407 44.9467 80.1073 45.032 80.406 45.096C80.726 45.1813 80.9927 45.224 81.206 45.224C81.7607 45.224 82.2193 45.0853 82.582 44.808C82.966 44.552 83.254 44.1787 83.446 43.688L84.566 40.904L78.006 24.456H81.078L85.91 37.992H85.974L90.614 24.456H93.494L86.294 43.208Z" fill="white"/>
</svg>
