<svg width="203" height="58" viewBox="0 0 203 58" fill="none" xmlns="http://www.w3.org/2000/svg">
<rect width="203" height="58" rx="29" fill="#F76661" fill-opacity="0.3"/>
<path d="M31.9516 31.656V41H28.9116V31.656L20.0796 18.152H23.6956L30.5436 29.032L37.2316 18.152H40.6876L31.9516 31.656ZM41.2351 32.744C41.2351 33.7467 41.3631 34.6427 41.6191 35.432C41.8965 36.2 42.2698 36.8507 42.7391 37.384C43.2085 37.896 43.7525 38.2907 44.3711 38.568C45.0111 38.8453 45.6831 38.984 46.3871 38.984C47.0911 38.984 47.7525 38.8453 48.3711 38.568C49.0111 38.2907 49.5658 37.896 50.0351 37.384C50.5045 36.8507 50.8671 36.2 51.1231 35.432C51.4005 34.6427 51.5391 33.7467 51.5391 32.744C51.5391 31.7413 51.4005 30.856 51.1231 30.088C50.8671 29.2987 50.5045 28.6373 50.0351 28.104C49.5658 27.5707 49.0111 27.1653 48.3711 26.888C47.7525 26.6107 47.0911 26.472 46.3871 26.472C45.6831 26.472 45.0111 26.6107 44.3711 26.888C43.7525 27.1653 43.2085 27.5707 42.7391 28.104C42.2698 28.6373 41.8965 29.2987 41.6191 30.088C41.3631 30.856 41.2351 31.7413 41.2351 32.744ZM38.3551 32.744C38.3551 31.528 38.5258 30.3973 38.8671 29.352C39.2085 28.2853 39.7205 27.368 40.4031 26.6C41.0858 25.8107 41.9285 25.192 42.9311 24.744C43.9338 24.296 45.0858 24.072 46.3871 24.072C47.7098 24.072 48.8618 24.296 49.8431 24.744C50.8458 25.192 51.6885 25.8107 52.3711 26.6C53.0538 27.368 53.5658 28.2853 53.9071 29.352C54.2485 30.3973 54.4191 31.528 54.4191 32.744C54.4191 33.96 54.2485 35.0907 53.9071 36.136C53.5658 37.1813 53.0538 38.0987 52.3711 38.888C51.6885 39.656 50.8458 40.264 49.8431 40.712C48.8618 41.1387 47.7098 41.352 46.3871 41.352C45.0858 41.352 43.9338 41.1387 42.9311 40.712C41.9285 40.264 41.0858 39.656 40.4031 38.888C39.7205 38.0987 39.2085 37.1813 38.8671 36.136C38.5258 35.0907 38.3551 33.96 38.3551 32.744ZM71.3221 41H68.7621V38.376H68.6981C68.1221 39.4 67.3861 40.1573 66.4901 40.648C65.5941 41.1173 64.5381 41.352 63.3221 41.352C62.2341 41.352 61.3275 41.2133 60.6021 40.936C59.8768 40.6373 59.2901 40.2213 58.8421 39.688C58.3941 39.1547 58.0741 38.5253 57.8821 37.8C57.7115 37.0533 57.6261 36.232 57.6261 35.336V24.456H60.3461V35.656C60.3461 36.68 60.6448 37.4907 61.2421 38.088C61.8395 38.6853 62.6608 38.984 63.7061 38.984C64.5381 38.984 65.2528 38.856 65.8501 38.6C66.4688 38.344 66.9808 37.9813 67.3861 37.512C67.7915 37.0427 68.0901 36.4987 68.2821 35.88C68.4955 35.24 68.6021 34.5467 68.6021 33.8V24.456H71.3221V41ZM75.3114 24.456H77.8714V27.944H77.9354C78.5967 26.6 79.4074 25.608 80.3674 24.968C81.3274 24.328 82.5434 24.0293 84.0154 24.072V26.952C82.9274 26.952 81.9994 27.1013 81.2314 27.4C80.4634 27.6987 79.8447 28.136 79.3754 28.712C78.906 29.288 78.5647 29.992 78.3514 30.824C78.138 31.6347 78.0314 32.5733 78.0314 33.64V41H75.3114V24.456ZM98.4579 29.096H104.41C106.138 29.1173 107.397 28.7653 108.186 28.04C108.997 27.3147 109.402 26.2693 109.402 24.904C109.402 23.5387 108.997 22.504 108.186 21.8C107.397 21.0747 106.138 20.712 104.41 20.712H98.4579V29.096ZM95.4179 18.152H105.434C107.738 18.152 109.477 18.7493 110.65 19.944C111.845 21.1173 112.442 22.7707 112.442 24.904C112.442 27.0373 111.845 28.7013 110.65 29.896C109.477 31.0907 107.738 31.6773 105.434 31.656H98.4579V41H95.4179V18.152ZM115.624 24.456H118.184V27.944H118.248C118.909 26.6 119.72 25.608 120.68 24.968C121.64 24.328 122.856 24.0293 124.328 24.072V26.952C123.24 26.952 122.312 27.1013 121.544 27.4C120.776 27.6987 120.157 28.136 119.688 28.712C119.219 29.288 118.877 29.992 118.664 30.824C118.451 31.6347 118.344 32.5733 118.344 33.64V41H115.624V24.456ZM127.798 32.744C127.798 33.7467 127.926 34.6427 128.182 35.432C128.459 36.2 128.832 36.8507 129.302 37.384C129.771 37.896 130.315 38.2907 130.934 38.568C131.574 38.8453 132.246 38.984 132.95 38.984C133.654 38.984 134.315 38.8453 134.934 38.568C135.574 38.2907 136.128 37.896 136.598 37.384C137.067 36.8507 137.43 36.2 137.686 35.432C137.963 34.6427 138.102 33.7467 138.102 32.744C138.102 31.7413 137.963 30.856 137.686 30.088C137.43 29.2987 137.067 28.6373 136.598 28.104C136.128 27.5707 135.574 27.1653 134.934 26.888C134.315 26.6107 133.654 26.472 132.95 26.472C132.246 26.472 131.574 26.6107 130.934 26.888C130.315 27.1653 129.771 27.5707 129.302 28.104C128.832 28.6373 128.459 29.2987 128.182 30.088C127.926 30.856 127.798 31.7413 127.798 32.744ZM124.918 32.744C124.918 31.528 125.088 30.3973 125.43 29.352C125.771 28.2853 126.283 27.368 126.966 26.6C127.648 25.8107 128.491 25.192 129.494 24.744C130.496 24.296 131.648 24.072 132.95 24.072C134.272 24.072 135.424 24.296 136.406 24.744C137.408 25.192 138.251 25.8107 138.934 26.6C139.616 27.368 140.128 28.2853 140.47 29.352C140.811 30.3973 140.982 31.528 140.982 32.744C140.982 33.96 140.811 35.0907 140.47 36.136C140.128 37.1813 139.616 38.0987 138.934 38.888C138.251 39.656 137.408 40.264 136.406 40.712C135.424 41.1387 134.272 41.352 132.95 41.352C131.648 41.352 130.496 41.1387 129.494 40.712C128.491 40.264 127.648 39.656 126.966 38.888C126.283 38.0987 125.771 37.1813 125.43 36.136C125.088 35.0907 124.918 33.96 124.918 32.744ZM153.821 41V24.456H156.541V41H153.821ZM153.821 21.48V18.152H156.541V21.48H153.821ZM145.309 26.856H142.525V24.456H145.309V21.992C145.309 20.648 145.693 19.6347 146.461 18.952C147.25 18.248 148.391 17.896 149.885 17.896C150.141 17.896 150.429 17.9173 150.749 17.96C151.09 18.0027 151.389 18.0667 151.645 18.152V20.52C151.41 20.4347 151.154 20.3813 150.877 20.36C150.599 20.3173 150.343 20.296 150.109 20.296C149.447 20.296 148.935 20.424 148.573 20.68C148.21 20.936 148.029 21.4267 148.029 22.152V24.456H151.229V26.856H148.029V41H145.309V26.856ZM160.911 18.152H163.631V41H160.911V18.152ZM179.333 31.144C179.29 30.504 179.141 29.896 178.885 29.32C178.65 28.744 178.32 28.2533 177.893 27.848C177.488 27.4213 176.997 27.0907 176.421 26.856C175.866 26.6 175.248 26.472 174.565 26.472C173.861 26.472 173.221 26.6 172.645 26.856C172.09 27.0907 171.61 27.4213 171.205 27.848C170.8 28.2747 170.48 28.776 170.245 29.352C170.01 29.9067 169.872 30.504 169.829 31.144H179.333ZM181.957 35.752C181.594 37.608 180.794 39.0053 179.557 39.944C178.32 40.8827 176.762 41.352 174.885 41.352C173.562 41.352 172.41 41.1387 171.429 40.712C170.469 40.2853 169.658 39.688 168.997 38.92C168.336 38.152 167.834 37.2347 167.493 36.168C167.173 35.1013 166.992 33.9387 166.949 32.68C166.949 31.4213 167.141 30.2693 167.525 29.224C167.909 28.1787 168.442 27.272 169.125 26.504C169.829 25.736 170.65 25.1387 171.589 24.712C172.549 24.2853 173.594 24.072 174.725 24.072C176.197 24.072 177.413 24.3813 178.373 25C179.354 25.5973 180.133 26.3653 180.709 27.304C181.306 28.2427 181.712 29.2667 181.925 30.376C182.16 31.4853 182.256 32.5413 182.213 33.544H169.829C169.808 34.2693 169.893 34.9627 170.085 35.624C170.277 36.264 170.586 36.84 171.013 37.352C171.44 37.8427 171.984 38.2373 172.645 38.536C173.306 38.8347 174.085 38.984 174.981 38.984C176.133 38.984 177.072 38.7173 177.797 38.184C178.544 37.6507 179.034 36.84 179.269 35.752H181.957Z" fill="white"/>
</svg>
