<svg width="130" height="58" viewBox="0 0 130 58" fill="none" xmlns="http://www.w3.org/2000/svg">
<rect width="130" height="58" rx="29" fill="white" fill-opacity="0.1"/>
<path d="M35.962 24.84C35.7913 23.1973 35.194 22.0133 34.17 21.288C33.1673 20.5413 31.8767 20.168 30.298 20.168C29.658 20.168 29.0287 20.232 28.41 20.36C27.7913 20.488 27.2367 20.7013 26.746 21C26.2767 21.2987 25.8927 21.704 25.594 22.216C25.3167 22.7067 25.178 23.3253 25.178 24.072C25.178 24.776 25.3807 25.352 25.786 25.8C26.2127 26.2267 26.7673 26.5787 27.45 26.856C28.154 27.1333 28.9433 27.368 29.818 27.56C30.6927 27.7307 31.578 27.9227 32.474 28.136C33.3913 28.3493 34.2873 28.6053 35.162 28.904C36.0367 29.1813 36.8153 29.5653 37.498 30.056C38.202 30.5467 38.7567 31.1653 39.162 31.912C39.5887 32.6587 39.802 33.5973 39.802 34.728C39.802 35.944 39.5247 36.9893 38.97 37.864C38.4367 38.7173 37.7433 39.4213 36.89 39.976C36.0367 40.5093 35.0767 40.8933 34.01 41.128C32.9647 41.384 31.9193 41.512 30.874 41.512C29.594 41.512 28.378 41.352 27.226 41.032C26.0953 40.712 25.0927 40.232 24.218 39.592C23.3647 38.9307 22.682 38.0987 22.17 37.096C21.6793 36.072 21.434 34.8667 21.434 33.48H24.314C24.314 34.44 24.4953 35.272 24.858 35.976C25.242 36.6587 25.7327 37.224 26.33 37.672C26.9487 38.12 27.6633 38.4507 28.474 38.664C29.2847 38.8773 30.1167 38.984 30.97 38.984C31.6527 38.984 32.3353 38.92 33.018 38.792C33.722 38.664 34.3513 38.4507 34.906 38.152C35.4607 37.832 35.9087 37.4053 36.25 36.872C36.5913 36.3387 36.762 35.656 36.762 34.824C36.762 34.0347 36.5487 33.3947 36.122 32.904C35.7167 32.4133 35.162 32.0187 34.458 31.72C33.7753 31.4 32.9967 31.144 32.122 30.952C31.2473 30.76 30.3513 30.568 29.434 30.376C28.538 30.1627 27.6527 29.928 26.778 29.672C25.9033 29.3947 25.114 29.0427 24.41 28.616C23.7273 28.168 23.1727 27.6027 22.746 26.92C22.3407 26.216 22.138 25.3413 22.138 24.296C22.138 23.144 22.3727 22.152 22.842 21.32C23.3113 20.4667 23.93 19.7733 24.698 19.24C25.4873 18.6853 26.3727 18.28 27.354 18.024C28.3567 17.7467 29.3807 17.608 30.426 17.608C31.5993 17.608 32.6873 17.7467 33.69 18.024C34.6927 18.3013 35.5673 18.7387 36.314 19.336C37.082 19.9333 37.6793 20.6907 38.106 21.608C38.554 22.504 38.7993 23.5813 38.842 24.84H35.962ZM54.536 31.144C54.4933 30.504 54.344 29.896 54.088 29.32C53.8533 28.744 53.5227 28.2533 53.096 27.848C52.6907 27.4213 52.2 27.0907 51.624 26.856C51.0693 26.6 50.4507 26.472 49.768 26.472C49.064 26.472 48.424 26.6 47.848 26.856C47.2933 27.0907 46.8133 27.4213 46.408 27.848C46.0027 28.2747 45.6827 28.776 45.448 29.352C45.2133 29.9067 45.0747 30.504 45.032 31.144H54.536ZM57.16 35.752C56.7973 37.608 55.9973 39.0053 54.76 39.944C53.5227 40.8827 51.9653 41.352 50.088 41.352C48.7653 41.352 47.6133 41.1387 46.632 40.712C45.672 40.2853 44.8613 39.688 44.2 38.92C43.5387 38.152 43.0373 37.2347 42.696 36.168C42.376 35.1013 42.1947 33.9387 42.152 32.68C42.152 31.4213 42.344 30.2693 42.728 29.224C43.112 28.1787 43.6453 27.272 44.328 26.504C45.032 25.736 45.8533 25.1387 46.792 24.712C47.752 24.2853 48.7973 24.072 49.928 24.072C51.4 24.072 52.616 24.3813 53.576 25C54.5573 25.5973 55.336 26.3653 55.912 27.304C56.5093 28.2427 56.9147 29.2667 57.128 30.376C57.3627 31.4853 57.4587 32.5413 57.416 33.544H45.032C45.0107 34.2693 45.096 34.9627 45.288 35.624C45.48 36.264 45.7893 36.84 46.216 37.352C46.6427 37.8427 47.1867 38.2373 47.848 38.536C48.5093 38.8347 49.288 38.984 50.184 38.984C51.336 38.984 52.2747 38.7173 53 38.184C53.7467 37.6507 54.2373 36.84 54.472 35.752H57.16ZM60.3955 18.152H63.1155V41H60.3955V18.152ZM78.8173 31.144C78.7746 30.504 78.6253 29.896 78.3693 29.32C78.1346 28.744 77.8039 28.2533 77.3773 27.848C76.9719 27.4213 76.4813 27.0907 75.9053 26.856C75.3506 26.6 74.7319 26.472 74.0493 26.472C73.3453 26.472 72.7053 26.6 72.1293 26.856C71.5746 27.0907 71.0946 27.4213 70.6893 27.848C70.2839 28.2747 69.9639 28.776 69.7293 29.352C69.4946 29.9067 69.3559 30.504 69.3133 31.144H78.8173ZM81.4412 35.752C81.0786 37.608 80.2786 39.0053 79.0413 39.944C77.8039 40.8827 76.2466 41.352 74.3693 41.352C73.0466 41.352 71.8946 41.1387 70.9133 40.712C69.9533 40.2853 69.1426 39.688 68.4813 38.92C67.8199 38.152 67.3186 37.2347 66.9773 36.168C66.6573 35.1013 66.4759 33.9387 66.4333 32.68C66.4333 31.4213 66.6253 30.2693 67.0093 29.224C67.3933 28.1787 67.9266 27.272 68.6093 26.504C69.3133 25.736 70.1346 25.1387 71.0733 24.712C72.0333 24.2853 73.0786 24.072 74.2093 24.072C75.6813 24.072 76.8973 24.3813 77.8573 25C78.8386 25.5973 79.6173 26.3653 80.1933 27.304C80.7906 28.2427 81.1959 29.2667 81.4093 30.376C81.6439 31.4853 81.7399 32.5413 81.6973 33.544H69.3133C69.2919 34.2693 69.3773 34.9627 69.5693 35.624C69.7613 36.264 70.0706 36.84 70.4973 37.352C70.9239 37.8427 71.4679 38.2373 72.1293 38.536C72.7906 38.8347 73.5693 38.984 74.4653 38.984C75.6173 38.984 76.5559 38.7173 77.2813 38.184C78.0279 37.6507 78.5186 36.84 78.7533 35.752H81.4412ZM95.7488 29.768C95.5354 28.7227 95.0874 27.912 94.4048 27.336C93.7221 26.76 92.8048 26.472 91.6528 26.472C90.6714 26.472 89.8501 26.6533 89.1888 27.016C88.5274 27.3787 87.9941 27.8587 87.5888 28.456C87.2048 29.0533 86.9274 29.7467 86.7568 30.536C86.5861 31.304 86.5008 32.104 86.5008 32.936C86.5008 33.704 86.5861 34.4507 86.7568 35.176C86.9488 35.9013 87.2368 36.552 87.6208 37.128C88.0048 37.6827 88.5061 38.1307 89.1248 38.472C89.7434 38.8133 90.4794 38.984 91.3328 38.984C92.6768 38.984 93.7221 38.632 94.4688 37.928C95.2368 37.224 95.7061 36.232 95.8768 34.952H98.6608C98.3621 37 97.5941 38.5787 96.3568 39.688C95.1408 40.7973 93.4768 41.352 91.3648 41.352C90.1061 41.352 88.9861 41.1493 88.0048 40.744C87.0448 40.3387 86.2341 39.7627 85.5728 39.016C84.9328 38.2693 84.4421 37.384 84.1008 36.36C83.7808 35.3147 83.6208 34.1733 83.6208 32.936C83.6208 31.6987 83.7808 30.5467 84.1008 29.48C84.4208 28.392 84.9008 27.4533 85.5408 26.664C86.2021 25.8533 87.0234 25.224 88.0048 24.776C88.9861 24.3067 90.1274 24.072 91.4288 24.072C92.3674 24.072 93.2421 24.1893 94.0528 24.424C94.8848 24.6373 95.6101 24.9787 96.2288 25.448C96.8688 25.9173 97.3914 26.5147 97.7968 27.24C98.2021 27.944 98.4581 28.7867 98.5648 29.768H95.7488ZM105.48 24.456H108.776V26.856H105.48V37.128C105.48 37.448 105.502 37.704 105.544 37.896C105.608 38.088 105.715 38.2373 105.864 38.344C106.014 38.4507 106.216 38.5253 106.472 38.568C106.75 38.5893 107.102 38.6 107.528 38.6H108.776V41H106.696C105.992 41 105.384 40.9573 104.872 40.872C104.382 40.7653 103.976 40.584 103.656 40.328C103.358 40.072 103.134 39.7093 102.984 39.24C102.835 38.7707 102.76 38.152 102.76 37.384V26.856H99.9443V24.456H102.76V19.496H105.48V24.456Z" fill="white"/>
</svg>
