<?xml version="1.0" encoding="UTF-8" standalone="no"?>
<svg
   width="156"
   height="58"
   viewBox="0 0 156 58"
   fill="none"
   version="1.1"
   id="svg3"
   sodipodi:docname="toggle2.svg"
   inkscape:version="1.4.2 (f4327f4, 2025-05-13)"
   xmlns:inkscape="http://www.inkscape.org/namespaces/inkscape"
   xmlns:sodipodi="http://sodipodi.sourceforge.net/DTD/sodipodi-0.dtd"
   xmlns="http://www.w3.org/2000/svg"
   xmlns:svg="http://www.w3.org/2000/svg">
  <defs
     id="defs3" />
  <sodipodi:namedview
     id="namedview3"
     pagecolor="#ffffff"
     bordercolor="#000000"
     borderopacity="0.25"
     inkscape:showpageshadow="2"
     inkscape:pageopacity="0.0"
     inkscape:pagecheckerboard="0"
     inkscape:deskcolor="#d1d1d1"
     showgrid="false"
     inkscape:zoom="7.9294872"
     inkscape:cx="78"
     inkscape:cy="28.942603"
     inkscape:window-width="1920"
     inkscape:window-height="991"
     inkscape:window-x="-9"
     inkscape:window-y="-9"
     inkscape:window-maximized="1"
     inkscape:current-layer="svg3" />
  <rect
     width="156"
     height="58"
     rx="29"
     fill="#F76661"
     fill-opacity="0.3"
     id="rect1" />
  <ellipse
     cx="30"
     cy="29.5"
     rx="26"
     ry="25.5"
     fill="white"
     fill-opacity="0.2"
     id="ellipse1" />
  <path
     d="M16.9347 28.343C17.2487 28.3042 17.5638 28.2643 17.8779 28.2254C19.78 27.9933 21.68 27.7507 23.5317 27.2329C24.5904 26.9377 25.6019 26.5334 26.4862 25.8601C27.6101 25.0062 28.2676 23.8403 28.7139 22.5327C29.2191 21.0518 29.4733 19.5162 29.6928 17.9743C29.8241 17.049 29.9355 16.1216 30.1077 15.1879C30.1613 15.609 30.2148 16.0313 30.2695 16.4524C30.531 18.4732 30.7831 20.4962 31.4217 22.4445C31.8953 23.8908 32.6337 25.1585 33.9224 26.0366C34.9349 26.7277 36.0766 27.111 37.2561 27.3946C39.1478 27.8494 41.074 28.0889 43.0045 28.3063C43.0791 28.3147 43.1526 28.3346 43.2293 28.4124C43.1421 28.426 43.0549 28.4439 42.9677 28.4544C40.8398 28.7065 38.7098 28.9501 36.6386 29.5288C35.2574 29.9143 33.9676 30.4731 32.9635 31.5497C32.0928 32.4834 31.6128 33.6219 31.262 34.8245C30.803 36.3989 30.5688 38.0185 30.3556 39.6402C30.2705 40.2893 30.1907 40.9384 30.0552 41.5875C29.9901 41.0529 29.9292 40.5172 29.8577 39.9826C29.5973 38.0406 29.3294 36.1017 28.7213 34.2259C27.963 31.8847 26.3991 30.4038 24.0611 29.6853C22.4572 29.1927 20.8135 28.9176 19.1571 28.7012C18.4723 28.6119 17.7854 28.5311 17.0996 28.4439C17.0439 28.4365 16.9903 28.4145 16.9347 28.3998C16.9347 28.3809 16.9347 28.3609 16.9347 28.342V28.343Z"
     fill="white"
     fill-opacity="0.3"
     id="path1" />
  <path
     d="M15 38.1299C15.1134 38.1089 15.2258 38.0868 15.3393 38.0658C16.2058 37.9051 17.0817 37.7823 17.9377 37.5743C19.1739 37.2728 19.8945 36.421 20.1654 35.2079C20.3513 34.3729 20.4595 33.5211 20.6034 32.6777C20.6129 32.62 20.6213 32.5611 20.6874 32.4918C20.7085 32.5916 20.7316 32.6924 20.7494 32.7922C20.9091 33.6598 21.0288 34.5368 21.2357 35.3928C21.5372 36.6374 22.3869 37.3684 23.6147 37.6415C24.415 37.8201 25.2311 37.9282 26.0398 38.069C26.1354 38.0858 26.23 38.1089 26.3171 38.1814C25.8371 38.2486 25.354 38.298 24.8782 38.3872C24.3467 38.487 23.8132 38.5931 23.2943 38.7464C22.1064 39.0993 21.4258 39.9406 21.1695 41.1222C20.9952 41.9236 20.886 42.7397 20.7463 43.5485C20.7326 43.6262 20.7148 43.7039 20.699 43.7806C20.6769 43.7795 20.6538 43.7774 20.6318 43.7764C20.5919 43.4697 20.5656 43.1609 20.5099 42.8574C20.3955 42.2303 20.2883 41.5991 20.136 40.9805C19.8167 39.6865 18.966 38.9145 17.6804 38.6393C16.8612 38.4639 16.0283 38.3536 15.2017 38.2139C15.1365 38.2034 15.0714 38.1929 15.0063 38.1835C15.0042 38.1656 15.0021 38.1467 15 38.1289V38.1299Z"
     fill="white"
     fill-opacity="0.3"
     id="path2" />
  <path
     d="M40.2979 14.0147C40.426 14.7804 40.5436 15.5492 40.6896 16.3117C40.7516 16.6363 40.8598 16.9535 40.9722 17.2654C41.3881 18.4187 42.3082 18.9491 43.4309 19.1949C44.079 19.3366 44.7386 19.427 45.3929 19.5373C45.5956 19.5719 45.7994 19.5961 46 19.6591C45.3793 19.7515 44.7543 19.825 44.1388 19.9427C43.6599 20.0341 43.1831 20.1548 42.7209 20.3113C41.6097 20.6863 41.0205 21.5339 40.7778 22.6304C40.6003 23.4308 40.4943 24.2469 40.3567 25.0567C40.3441 25.1302 40.3336 25.2047 40.26 25.2835C40.2411 25.1806 40.2212 25.0787 40.2033 24.9758C40.0615 24.167 39.9523 23.3509 39.7706 22.5517C39.4576 21.1799 38.5533 20.3838 37.1942 20.1065C36.4075 19.9458 35.6103 19.8345 34.8173 19.7022C34.7322 19.6874 34.6461 19.6769 34.5568 19.6244C34.9717 19.5667 35.3887 19.5257 35.7994 19.4459C36.4422 19.3209 37.0902 19.2085 37.7162 19.0226C38.7497 18.7149 39.4313 18.0048 39.6929 16.9629C39.9103 16.0922 40.0363 15.1995 40.2023 14.3161C40.2222 14.2111 40.239 14.105 40.2579 14L40.2989 14.0147H40.2979Z"
     fill="white"
     fill-opacity="0.3"
     id="path3" />
  <path
     style="fill:#ffd42a;stroke-width:0.126112"
     d="m 29.727579,38.936643 c -0.859183,-6.134649 -2.187098,-8.218392 -5.95555,-9.345347 -1.275786,-0.381526 -3.212709,-0.754176 -5.069258,-0.975293 -0.741931,-0.08836 -1.325216,-0.199091 -1.296188,-0.24606 0.02903,-0.04697 0.437437,-0.123836 0.907576,-0.170817 2.765699,-0.276378 5.443025,-0.896528 6.940612,-1.607657 2.619385,-1.243815 3.700181,-3.337184 4.450757,-8.620572 0.157658,-1.109781 0.327178,-2.064628 0.376711,-2.12188 0.04953,-0.05725 0.131116,0.283248 0.181297,0.756669 0.179,1.688739 0.684927,4.40922 1.016108,5.463837 0.893524,2.845348 2.304384,4.252296 5.103541,5.089384 1.301335,0.389164 3.25377,0.767599 5.07599,0.983865 0.745635,0.08849 1.3557,0.19529 1.3557,0.237326 0,0.04203 -0.780316,0.172683 -1.734034,0.29033 -6.379811,0.786984 -8.640121,2.175047 -9.787039,6.010251 -0.380567,1.272584 -0.76031,3.226456 -0.974285,5.012935 -0.08516,0.710954 -0.188608,1.292507 -0.229896,1.292342 -0.04129,-1.67e-4 -0.204207,-0.922358 -0.362042,-2.049313 z"
     id="path4" />
  <path
     style="fill:#ffd42a;stroke-width:0.126112"
     d="m 20.449574,42.42323 c -0.288922,-1.71589 -0.598027,-2.449237 -1.288545,-3.057055 -0.630193,-0.554718 -1.034663,-0.696199 -2.82823,-0.989294 l -1.32282,-0.216169 1.253223,-0.224993 c 1.890659,-0.339433 2.471607,-0.542523 2.986344,-1.043976 0.631885,-0.615579 0.849755,-1.135354 1.130243,-2.696427 0.132743,-0.73879 0.260003,-1.400005 0.282801,-1.469366 0.0228,-0.06936 0.115231,0.356265 0.205407,0.945837 0.481676,3.149175 1.138224,3.805962 4.291259,4.292819 l 1.071949,0.165519 -1.22072,0.217299 c -3.211376,0.571655 -3.640703,1.061821 -4.232668,4.832475 l -0.0969,0.617248 z"
     id="path5" />
  <path
     style="fill:#ffd42a;stroke-width:0.126112"
     d="m 40.003364,23.674736 c -0.439258,-2.586893 -1.165624,-3.338728 -3.620179,-3.747113 -1.661656,-0.276464 -1.664912,-0.279136 -0.567502,-0.465626 3.016558,-0.512626 3.650992,-1.069694 4.142653,-3.637483 0.305046,-1.593157 0.334466,-1.599296 0.592434,-0.123625 0.248651,1.422373 0.568437,2.136032 1.210318,2.701038 0.671609,0.591175 0.99694,0.711455 2.722399,1.006519 l 1.294785,0.221416 -1.150592,0.210503 c -1.78562,0.326684 -2.437937,0.579195 -3.034042,1.174477 -0.583776,0.582971 -0.802251,1.157551 -1.053724,2.771255 -0.08527,0.547153 -0.191589,1.036168 -0.236274,1.086698 -0.04468,0.05053 -0.179808,-0.488596 -0.300276,-1.198059 z"
     id="path6" />
  <path
     style="fill:#80b3ff;stroke-width:0.126112"
     d="M 27.05093,54.802716 C 14.52362,53.317355 4.8562874,43.372553 4.1115383,31.204925 3.6608393,23.841454 6.2799139,16.853612 11.411541,11.728099 19.361265,3.7878465 31.533889,1.7758586 41.616815,6.7355315 c 6.474811,3.1848836 11.298048,8.8524155 13.31722,15.6483635 0.749862,2.523815 0.926562,3.865616 0.93014,7.063154 0.0034,3.031285 -0.06431,3.668407 -0.649916,6.116411 -1.614722,6.749984 -6.422743,12.885526 -12.777719,16.305716 -2.386437,1.28436 -5.330586,2.277954 -8.134196,2.745139 -1.98565,0.330883 -5.319272,0.417495 -7.251414,0.188401 z M 21.051847,42.058205 c 0.463185,-2.537726 1.148734,-3.158717 4.034794,-3.654836 0.618995,-0.106407 1.148435,-0.216457 1.176534,-0.244555 0.0281,-0.0281 -0.279727,-0.112806 -0.684054,-0.18824 -3.593157,-0.670355 -4.020729,-1.045732 -4.599742,-4.038236 -0.310388,-1.604182 -0.338448,-1.594031 -0.674188,0.243895 -0.264828,1.449738 -0.526807,2.077829 -1.088815,2.610423 -0.56561,0.536007 -1.051282,0.723674 -2.692508,1.040398 -0.757049,0.146095 -1.400493,0.289668 -1.429876,0.319051 -0.06313,0.06313 0.169468,0.116779 1.672307,0.385707 1.354671,0.242413 1.774629,0.406606 2.364377,0.924413 0.674651,0.592351 0.969795,1.391079 1.427483,3.863096 0.08644,0.466867 0.100591,0.480959 0.189962,0.189167 0.05311,-0.173403 0.189788,-0.82603 0.303726,-1.450283 z m 9.337687,-2.396119 c 0.644569,-4.676658 1.37256,-6.797961 2.822708,-8.225122 1.303146,-1.282492 3.712703,-2.150808 7.269569,-2.619684 2.312982,-0.304904 2.801296,-0.394428 2.585287,-0.473969 -0.104042,-0.03831 -1.194999,-0.218553 -2.424349,-0.400534 -5.40972,-0.800805 -7.395525,-1.805576 -8.665959,-4.384769 -0.283671,-0.575901 -0.653401,-1.594346 -0.82162,-2.26321 -0.314488,-1.250442 -0.951451,-5.078612 -0.951451,-5.718247 0,-0.756823 -0.145829,-0.136797 -0.572363,2.43353 -0.510849,3.078415 -0.895944,4.513956 -1.544429,5.757253 -1.08046,2.071493 -2.957924,3.171421 -6.647962,3.894766 -1.138395,0.223156 -1.253845,0.240489 -3.125555,0.469244 -0.743273,0.09084 -1.351405,0.20565 -1.351405,0.255134 0,0.04948 0.354689,0.127018 0.788197,0.172299 1.558913,0.162836 4.682054,0.721033 5.724643,1.023164 3.065918,0.888468 4.607253,2.470226 5.459992,5.603184 0.280509,1.030589 0.816605,4.086563 0.95994,5.472059 0.116862,1.129612 0.234535,0.892939 0.494757,-0.995098 z M 40.627791,23.69829 c 0.458024,-2.564824 1.071165,-3.203263 3.525638,-3.671105 2.015969,-0.384258 2.03295,-0.40745 0.482075,-0.658426 -2.816706,-0.455822 -3.559213,-1.163046 -4.031571,-3.839988 -0.117925,-0.66831 -0.241919,-1.300234 -0.275541,-1.404276 -0.03362,-0.104042 -0.194143,0.461208 -0.356715,1.25611 -0.382809,1.871774 -0.603787,2.427233 -1.159858,2.915471 -0.619058,0.54354 -1.109584,0.728523 -2.806969,1.058546 -1.593676,0.309859 -1.61253,0.283616 0.493594,0.68704 2.342155,0.448635 2.932716,1.083279 3.442805,3.699791 0.158586,0.81347 0.316714,1.479365 0.351394,1.479766 0.03468,3.99e-4 0.185498,-0.684917 0.335148,-1.522929 z"
     id="path7" />
</svg>
